STARTFONT 2.1
FONT -Monotype-Century Schoolbook-Bold-R-Normal--25-180-100-100-P-130-iso8859-9
SIZE 18 100 100
FONTBOUNDINGBOX 29 31 -4 -5

STARTPROPERTIES 24
FOUNDRY "Monotype"
FAMILY_NAME "Century Schoolbook"
WEIGHT_NAME "Bold"
SLANT "R"
SETWIDTH_NAME "Normal"
ADD_STYLE_NAME ""
PIXEL_SIZE 25
POINT_SIZE 180
RESOLUTION_X 100
RESOLUTION_Y 100
SPACING "P"
AVERAGE_WIDTH 130
CHARSET_REGISTRY "iso8859"
CHARSET_ENCODING "9"
FACE_NAME "Century Schoolbook Bold ISO Latin5"
_DEC_DEVICE_FONTNAMES "PS=centuryschoolbook-b-lat5"
COPYRIGHT "Copyright (c) 1993 Monotype Typography Ltd."
CAP_HEIGHT 22
X_HEIGHT 14
WEIGHT 10
QUAD_WIDTH 15
DEFAULT_CHAR 160
FONT_DESCENT 5
FONT_ASCENT 26
ENDPROPERTIES

CHARS 191

STARTCHAR space
ENCODING 32
SWIDTH 287 0
DWIDTH 7 0
BBX 0 0 0 0
BITMAP
ENDCHAR

STARTCHAR exclam
ENCODING 33
SWIDTH 296 0
DWIDTH 7 0
BBX 4 19 2 0
BITMAP
60
F0
F0
F0
F0
F0
60
60
60
60
60
60
20
00
00
F0
F0
F0
70
ENDCHAR

STARTCHAR quotedbl
ENCODING 34
SWIDTH 333 0
DWIDTH 8 0
BBX 8 8 0 9
BITMAP
E7
E7
E7
E7
E7
42
42
42
ENDCHAR

STARTCHAR numbersign
ENCODING 35
SWIDTH 574 0
DWIDTH 14 0
BBX 14 18 0 1
BITMAP
0630
0C30
0C30
0C30
0C70
FFFC
FFFC
1860
1860
18C0
30C0
FFFC
FFFC
30C0
3180
7180
6180
6180
ENDCHAR

STARTCHAR dollar
ENCODING 36
SWIDTH 574 0
DWIDTH 14 0
BBX 11 22 2 -3
BITMAP
0400
0400
3F80
64C0
C5C0
C5C0
E5C0
E400
7C00
7E00
1F80
0FC0
05E0
64E0
F460
F460
E460
64C0
3F80
0400
0400
0400
ENDCHAR

STARTCHAR percent
ENCODING 37
SWIDTH 833 0
DWIDTH 21 0
BBX 18 18 1 0
BITMAP
380000
6C0300
C60400
C60C00
C60800
C61000
C62000
6C2000
384000
008700
010D80
0118C0
0218C0
0418C0
0C18C0
0818C0
100D80
200700
ENDCHAR

STARTCHAR ampersand
ENCODING 38
SWIDTH 852 0
DWIDTH 21 0
BBX 19 19 2 0
BITMAP
07E000
0E7000
1C3800
1C3800
1C3800
1E3000
0EE000
078000
0F0FE0
3B87C0
73C300
E3C300
E1E200
E0F400
F07820
F03C20
7C7E60
7FEFC0
1F8F80
ENDCHAR

STARTCHAR quoteright
ENCODING 39
SWIDTH 241 0
DWIDTH 6 0
BBX 5 8 0 11
BITMAP
70
F8
F8
78
18
10
20
C0
ENDCHAR

STARTCHAR parenleft
ENCODING 40
SWIDTH 389 0
DWIDTH 10 0
BBX 8 24 2 -5
BITMAP
01
06
0C
0C
18
38
78
70
70
F0
F0
F0
F0
F0
F0
70
70
78
38
18
0C
04
02
01
ENDCHAR

STARTCHAR parenright
ENCODING 41
SWIDTH 389 0
DWIDTH 10 0
BBX 8 24 0 -5
BITMAP
80
60
30
38
18
1C
0E
0E
0E
0F
0F
0F
0F
0F
0F
0E
0E
1E
1C
18
30
30
C0
40
ENDCHAR

STARTCHAR asterisk
ENCODING 42
SWIDTH 500 0
DWIDTH 13 0
BBX 11 11 1 7
BITMAP
0E00
0E00
0E00
E6E0
F5E0
F9E0
0200
1B00
3B80
7BC0
3180
ENDCHAR

STARTCHAR plus
ENCODING 43
SWIDTH 606 0
DWIDTH 15 0
BBX 14 14 1 1
BITMAP
0300
0300
0300
0300
0300
0300
FFFC
FFFC
0300
0300
0300
0300
0300
0300
ENDCHAR

STARTCHAR comma
ENCODING 44
SWIDTH 278 0
DWIDTH 7 0
BBX 5 8 1 -4
BITMAP
70
F8
F8
78
18
10
20
40
ENDCHAR

STARTCHAR minus
ENCODING 45
SWIDTH 606 0
DWIDTH 15 0
BBX 13 2 1 7
BITMAP
FFF8
FFF8
ENDCHAR

STARTCHAR period
ENCODING 46
SWIDTH 278 0
DWIDTH 7 0
BBX 4 4 1 0
BITMAP
E0
F0
F0
60
ENDCHAR

STARTCHAR slash
ENCODING 47
SWIDTH 278 0
DWIDTH 7 0
BBX 7 19 0 0
BITMAP
06
06
0E
0C
0C
1C
1C
18
18
38
30
30
70
60
60
60
E0
C0
C0
ENDCHAR

STARTCHAR zero
ENCODING 48
SWIDTH 574 0
DWIDTH 14 0
BBX 12 18 1 0
BITMAP
0F00
39C0
38C0
70E0
70E0
F0F0
F0F0
F0F0
F0F0
F0F0
F0F0
F0F0
70F0
70E0
70E0
39C0
19C0
0F00
ENDCHAR

STARTCHAR one
ENCODING 49
SWIDTH 574 0
DWIDTH 14 0
BBX 10 17 2 0
BITMAP
0600
3E00
FE00
0E00
0E00
0E00
0E00
0E00
0E00
0E00
0E00
0E00
0E00
0E00
0E00
0E00
7FC0
ENDCHAR

STARTCHAR two
ENCODING 50
SWIDTH 574 0
DWIDTH 14 0
BBX 12 17 1 0
BITMAP
1F80
31E0
60F0
60F0
78F0
78F0
38E0
01E0
01C0
0380
0600
0C10
1810
3030
7FF0
7FF0
FFF0
ENDCHAR

STARTCHAR three
ENCODING 51
SWIDTH 574 0
DWIDTH 14 0
BBX 12 18 1 0
BITMAP
1F80
31C0
71E0
78E0
78E0
30E0
01E0
0180
0F00
01C0
00E0
60F0
F0F0
F0F0
E0F0
C1E0
63E0
1F80
ENDCHAR

STARTCHAR four
ENCODING 52
SWIDTH 574 0
DWIDTH 14 0
BBX 12 17 2 0
BITMAP
0080
0180
0380
0780
0780
0B80
1B80
3380
2380
6380
C380
8380
FFF0
0380
0380
0380
1FE0
ENDCHAR

STARTCHAR five
ENCODING 53
SWIDTH 574 0
DWIDTH 14 0
BBX 11 18 2 0
BITMAP
4040
7FC0
7F80
7F00
4000
4000
4000
5F00
6380
C1C0
41E0
01E0
E1E0
F1E0
E1C0
C1C0
4380
3F00
ENDCHAR

STARTCHAR six
ENCODING 54
SWIDTH 574 0
DWIDTH 14 0
BBX 12 18 2 0
BITMAP
0F80
1CC0
38E0
39E0
70C0
7000
F000
F380
F7E0
F8E0
F0F0
F0F0
F0F0
70F0
70E0
30E0
39C0
0F80
ENDCHAR

STARTCHAR seven
ENCODING 55
SWIDTH 574 0
DWIDTH 14 0
BBX 11 17 2 0
BITMAP
7FE0
7FE0
FFE0
C040
80C0
8080
0180
0300
0300
0700
0700
0700
0F00
0E00
0E00
0E00
0E00
ENDCHAR

STARTCHAR eight
ENCODING 56
SWIDTH 574 0
DWIDTH 14 0
BBX 12 18 1 0
BITMAP
0F80
30C0
6060
6060
6060
7060
7CC0
3F00
0FC0
1FE0
31F0
6070
E030
E030
E030
6060
70E0
1F80
ENDCHAR

STARTCHAR nine
ENCODING 57
SWIDTH 574 0
DWIDTH 14 0
BBX 12 18 2 0
BITMAP
1F00
71C0
70E0
E0E0
E0E0
E0F0
E0F0
F0F0
F1F0
7F70
1CF0
00E0
00E0
71E0
F1C0
F1C0
7380
3E00
ENDCHAR

STARTCHAR colon
ENCODING 58
SWIDTH 278 0
DWIDTH 7 0
BBX 4 12 2 0
BITMAP
60
F0
F0
70
00
00
00
00
F0
F0
F0
70
ENDCHAR

STARTCHAR semicolon
ENCODING 59
SWIDTH 278 0
DWIDTH 7 0
BBX 5 16 1 -4
BITMAP
78
78
78
38
00
00
00
00
70
F8
F8
78
18
10
20
40
ENDCHAR

STARTCHAR less
ENCODING 60
SWIDTH 606 0
DWIDTH 15 0
BBX 13 13 1 2
BITMAP
0008
0038
01F8
07E0
3F00
FC00
E000
F800
3E00
0FC0
03F0
0078
0018
ENDCHAR

STARTCHAR equal
ENCODING 61
SWIDTH 606 0
DWIDTH 15 0
BBX 13 8 1 4
BITMAP
FFF8
FFF8
0000
0000
0000
0000
FFF8
FFF8
ENDCHAR

STARTCHAR greater
ENCODING 62
SWIDTH 606 0
DWIDTH 15 0
BBX 13 13 1 2
BITMAP
8000
F000
FC00
3F00
07E0
01F8
0038
00F8
03F0
1F80
7E00
F000
C000
ENDCHAR

STARTCHAR question
ENCODING 63
SWIDTH 500 0
DWIDTH 13 0
BBX 10 19 1 0
BITMAP
3F00
6380
E3C0
F1C0
F1C0
73C0
03C0
0380
0700
0600
0C00
0C00
0800
0000
0000
1E00
1E00
1E00
0E00
ENDCHAR

STARTCHAR at
ENCODING 64
SWIDTH 747 0
DWIDTH 19 0
BBX 19 20 0 -1
BITMAP
01FC00
060200
080100
100080
200040
60EC40
419440
C31C40
871840
861840
8E3840
8E7880
8EB100
CFB320
463C40
400040
200080
180300
060C00
01F000
ENDCHAR

STARTCHAR A
ENCODING 65
SWIDTH 759 0
DWIDTH 19 0
BBX 19 19 0 0
BITMAP
004000
00E000
00E000
00F000
01F000
017000
037800
027800
063C00
043C00
041C00
081E00
0FFE00
180F00
100F00
300700
300780
7807C0
FE1FE0
ENDCHAR

STARTCHAR B
ENCODING 66
SWIDTH 778 0
DWIDTH 19 0
BBX 18 19 1 0
BITMAP
FFFE00
1E1F00
1E0780
1E0780
1E0780
1E0780
1E0780
1E0F00
1E1400
1FF800
1E0F00
1E0780
1E03C0
1E03C0
1E03C0
1E03C0
1E0780
1E0F00
FFFE00
ENDCHAR

STARTCHAR C
ENCODING 67
SWIDTH 778 0
DWIDTH 19 0
BBX 16 19 2 0
BITMAP
07E2
0E1E
3C0E
3806
7806
7802
F002
F000
F000
F000
F000
F000
F001
F803
7802
3806
3C04
0F18
07F0
ENDCHAR

STARTCHAR D
ENCODING 68
SWIDTH 833 0
DWIDTH 21 0
BBX 19 19 0 0
BITMAP
FFFC00
1E0F00
1E0780
1E03C0
1E03C0
1E03E0
1E01E0
1E01E0
1E01E0
1E01E0
1E01E0
1E01E0
1E01E0
1E03E0
1E03C0
1E03C0
1E0780
1E1F00
FFFC00
ENDCHAR

STARTCHAR E
ENCODING 69
SWIDTH 759 0
DWIDTH 19 0
BBX 17 19 1 0
BITMAP
FFFF00
1E0700
1E0300
1E0100
1E0100
1E1100
1E1100
1E3000
1E7000
1FF000
1E3000
1E3000
1E1080
1E1080
1E0180
1E0180
1E0380
1E0780
FFFF80
ENDCHAR

STARTCHAR F
ENCODING 70
SWIDTH 722 0
DWIDTH 18 0
BBX 16 19 1 0
BITMAP
FFFF
1E07
1E03
1E01
1E01
1E11
1E11
1E10
1E70
1FF0
1E30
1E10
1E10
1E10
1E00
1E00
1E00
1E00
FFC0
ENDCHAR

STARTCHAR G
ENCODING 71
SWIDTH 833 0
DWIDTH 21 0
BBX 19 19 1 0
BITMAP
03F300
0E1F00
3C0700
380300
780300
780100
F00100
F00000
F00000
F00000
F03FE0
F00780
F00780
780780
780780
380780
3C0D80
0E1980
03F080
ENDCHAR

STARTCHAR H
ENCODING 72
SWIDTH 870 0
DWIDTH 22 0
BBX 19 19 1 0
BITMAP
FF1FE0
3C0780
3C0780
3C0780
3C0780
3C0780
3C0780
3C0780
3FFF80
3FFF80
3C0780
3C0780
3C0780
3C0780
3C0780
3C0780
3C0780
3C0780
FF1FE0
ENDCHAR

STARTCHAR I
ENCODING 73
SWIDTH 444 0
DWIDTH 11 0
BBX 10 19 1 0
BITMAP
FFC0
1E00
1E00
1E00
1E00
1E00
1E00
1E00
1E00
1E00
1E00
1E00
1E00
1E00
1E00
1E00
1E00
1E00
FFC0
ENDCHAR

STARTCHAR J
ENCODING 74
SWIDTH 648 0
DWIDTH 16 0
BBX 14 19 1 0
BITMAP
07FC
00F0
00F0
00F0
00F0
00F0
00F0
00F0
00F0
00F0
00F0
78F0
F8F0
F8F0
F8F0
C0F0
41E0
23C0
1F80
ENDCHAR

STARTCHAR K
ENCODING 75
SWIDTH 815 0
DWIDTH 20 0
BBX 19 19 1 0
BITMAP
FFBFC0
3C0F00
3C0C00
3C0800
3C1800
3C3000
3C6000
3CE000
3CF000
3DF000
3F7800
3E7800
3C3C00
3C3C00
3C1E00
3C1F00
3C0F00
3C0F80
FFBFE0
ENDCHAR

STARTCHAR L
ENCODING 76
SWIDTH 722 0
DWIDTH 18 0
BBX 17 19 1 0
BITMAP
FFC000
1E0000
1E0000
1E0000
1E0000
1E0000
1E0000
1E0000
1E0000
1E0000
1E0000
1E0000
1E0180
1E0180
1E0180
1E0380
1E0300
1E0F00
FFFF00
ENDCHAR

STARTCHAR M
ENCODING 77
SWIDTH 981 0
DWIDTH 25 0
BBX 24 19 0 0
BITMAP
FF00FF
1700B8
1781B8
178178
178178
138378
13C278
13C278
11C678
11E478
11E478
10EC78
10F878
10F878
107878
107078
387078
7C3078
FE23FF
ENDCHAR

STARTCHAR N
ENCODING 78
SWIDTH 833 0
DWIDTH 21 0
BBX 20 19 1 0
BITMAP
FC07F0
3E03C0
1F0180
1F0080
178080
17C080
13E080
11F080
10F080
10F880
107C80
103E80
101E80
100F80
100F80
100780
380380
7C0180
FE0180
ENDCHAR

STARTCHAR O
ENCODING 79
SWIDTH 833 0
DWIDTH 21 0
BBX 18 19 1 0
BITMAP
07F000
0E1C00
3C0E00
380700
780780
780380
F003C0
F003C0
F003C0
F003C0
F003C0
F003C0
F003C0
780780
780780
380700
1C0E00
0E1C00
03F000
ENDCHAR

STARTCHAR P
ENCODING 80
SWIDTH 759 0
DWIDTH 19 0
BBX 17 19 1 0
BITMAP
FFFC00
1E1F00
1E0700
1E0780
1E0780
1E0780
1E0780
1E0F00
1E1E00
1FFC00
1E0000
1E0000
1E0000
1E0000
1E0000
1E0000
1E0000
1E0000
FFC000
ENDCHAR

STARTCHAR Q
ENCODING 81
SWIDTH 833 0
DWIDTH 21 0
BBX 19 24 1 -5
BITMAP
07F000
0E1C00
1C0E00
380700
780780
780780
F003C0
F003C0
F003C0
F003C0
F003C0
F003C0
F1E3C0
FB3FC0
7E1B80
3C1F00
3E1E00
0E1C00
03FE00
001E20
000F60
000FC0
000FC0
000780
ENDCHAR

STARTCHAR R
ENCODING 82
SWIDTH 815 0
DWIDTH 20 0
BBX 18 19 2 0
BITMAP
FFF800
3C3E00
3C1E00
3C0F00
3C0F00
3C0F00
3C0F00
3C1E00
3C3C00
3FE000
3C7000
3C3800
3C3C00
3C3C00
3C1E00
3C1E40
3C1EC0
3C0F80
FF8700
ENDCHAR

STARTCHAR S
ENCODING 83
SWIDTH 667 0
DWIDTH 17 0
BBX 14 19 2 0
BITMAP
1F88
70D8
6078
C038
C018
E018
F000
FE00
7FE0
3FF0
0FF8
00FC
803C
801C
C01C
C018
E018
B870
8FC0
ENDCHAR

STARTCHAR T
ENCODING 84
SWIDTH 722 0
DWIDTH 18 0
BBX 16 19 1 0
BITMAP
FFFF
F3C7
C3C3
C3C3
83C1
83C1
83C1
03C0
03C0
03C0
03C0
03C0
03C0
03C0
03C0
03C0
03C0
03C0
1FF8
ENDCHAR

STARTCHAR U
ENCODING 85
SWIDTH 833 0
DWIDTH 21 0
BBX 19 19 1 0
BITMAP
FF8FE0
3C03C0
3C0180
3C0180
3C0180
3C0180
3C0180
3C0180
3C0180
3C0180
3C0180
3C0180
3C0180
3C0180
3C0180
1E0300
1F0600
0FFE00
03F800
ENDCHAR

STARTCHAR V
ENCODING 86
SWIDTH 759 0
DWIDTH 19 0
BBX 19 19 0 0
BITMAP
FF8FE0
3C03C0
3C0180
1E0100
1E0300
1E0300
0F0200
0F0600
078400
078C00
078C00
03C800
03D800
01F000
01F000
00F000
00E000
00E000
004000
ENDCHAR

STARTCHAR W
ENCODING 87
SWIDTH 981 0
DWIDTH 25 0
BBX 26 19 -1 0
BITMAP
FE7FCFC0
3C0F0380
3C0F0300
3C0F0300
1C0F0200
1E0F8200
1E1B8600
0E1B8400
0F13C400
0F33CC00
0731C800
07A1E800
07E1F800
03E0F800
03C0F000
03C0F000
01C07000
01806000
01806000
ENDCHAR

STARTCHAR X
ENCODING 88
SWIDTH 722 0
DWIDTH 18 0
BBX 19 19 -1 0
BITMAP
FF8FE0
3E0780
1E0700
1F0600
0F8C00
078C00
03D800
03F000
01E000
00F000
00F800
01B800
033C00
063E00
041F00
0C0F00
180780
3C07C0
FF1FE0
ENDCHAR

STARTCHAR Y
ENCODING 89
SWIDTH 722 0
DWIDTH 18 0
BBX 18 19 0 0
BITMAP
FF9FC0
7C0700
3C0600
1E0400
1E0C00
0F0800
0F9800
079800
07F000
03F000
01E000
01E000
01E000
01E000
01E000
01E000
01E000
01E000
0FFC00
ENDCHAR

STARTCHAR Z
ENCODING 90
SWIDTH 667 0
DWIDTH 17 0
BBX 15 19 1 0
BITMAP
7FFC
783C
607C
6078
40F0
41F0
41E0
03E0
03C0
0780
0F80
0F00
1F06
1E06
3C06
7C0E
780C
F03C
FFFC
ENDCHAR

STARTCHAR bracketleft
ENCODING 91
SWIDTH 389 0
DWIDTH 10 0
BBX 6 22 3 -3
BITMAP
FC
E0
E0
E0
E0
E0
E0
E0
E0
E0
E0
E0
E0
E0
E0
E0
E0
E0
E0
E0
E0
FC
ENDCHAR

STARTCHAR backslash
ENCODING 92
SWIDTH 606 0
DWIDTH 15 0
BBX 15 19 0 0
BITMAP
E000
7000
3000
1800
1C00
0C00
0600
0600
0300
0380
0180
00C0
00E0
0060
0030
0038
0018
000C
000E
ENDCHAR

STARTCHAR bracketright
ENCODING 93
SWIDTH 389 0
DWIDTH 10 0
BBX 6 22 0 -3
BITMAP
FC
1C
1C
1C
1C
1C
1C
1C
1C
1C
1C
1C
1C
1C
1C
1C
1C
1C
1C
1C
1C
FC
ENDCHAR

STARTCHAR asciicircum
ENCODING 94
SWIDTH 606 0
DWIDTH 15 0
BBX 11 9 2 10
BITMAP
0400
0E00
0E00
1F00
1B00
3B80
31C0
60C0
E0E0
ENDCHAR

STARTCHAR underscore
ENCODING 95
SWIDTH 500 0
DWIDTH 13 0
BBX 13 1 0 -3
BITMAP
FFF8
ENDCHAR

STARTCHAR quoteleft
ENCODING 96
SWIDTH 241 0
DWIDTH 6 0
BBX 5 8 1 10
BITMAP
18
20
40
C0
F0
F8
F8
70
ENDCHAR

STARTCHAR a
ENCODING 97
SWIDTH 611 0
DWIDTH 15 0
BBX 14 12 1 0
BITMAP
1F80
71C0
70E0
70E0
20E0
0FE0
38E0
70E0
F0E0
F1E0
7F64
3C78
ENDCHAR

STARTCHAR b
ENCODING 98
SWIDTH 648 0
DWIDTH 16 0
BBX 14 19 1 0
BITMAP
7800
F800
3800
3800
3800
3800
3800
39E0
3BF0
3C78
383C
383C
383C
383C
383C
3838
3C38
3470
63E0
ENDCHAR

STARTCHAR c
ENCODING 99
SWIDTH 556 0
DWIDTH 14 0
BBX 12 12 1 0
BITMAP
0FC0
3860
78F0
70F0
F060
F000
F000
F000
F010
7820
3C60
1F80
ENDCHAR

STARTCHAR d
ENCODING 100
SWIDTH 667 0
DWIDTH 17 0
BBX 15 19 1 0
BITMAP
0078
01F8
0038
0038
0038
0038
0038
0F38
3FB8
7878
7078
F038
F038
F038
F038
F078
78F8
3FBC
1F3E
ENDCHAR

STARTCHAR e
ENCODING 101
SWIDTH 574 0
DWIDTH 14 0
BBX 12 12 1 0
BITMAP
0F80
38E0
7860
7070
F070
FFF0
F000
F000
7010
7830
3C60
0FC0
ENDCHAR

STARTCHAR f
ENCODING 102
SWIDTH 389 0
DWIDTH 10 0
BBX 11 19 1 0
BITMAP
07C0
1CE0
19E0
39E0
38C0
3800
3800
FF00
3800
3800
3800
3800
3800
3800
3800
3800
3800
3800
FF00
ENDCHAR

STARTCHAR g
ENCODING 103
SWIDTH 611 0
DWIDTH 15 0
BBX 14 18 1 -5
BITMAP
003C
1FBC
79EC
70E0
F0F0
F0F0
F0F0
79E0
3F80
4000
C000
FFE0
7FF8
3FF8
E018
C018
E030
3FC0
ENDCHAR

STARTCHAR h
ENCODING 104
SWIDTH 685 0
DWIDTH 17 0
BBX 15 19 1 0
BITMAP
3800
F800
3800
3800
3800
3800
3800
39F0
3BF0
3C78
3C38
3838
3838
3838
3838
3838
3838
3838
FEFE
ENDCHAR

STARTCHAR i
ENCODING 105
SWIDTH 370 0
DWIDTH 9 0
BBX 7 19 1 0
BITMAP
30
78
78
78
00
00
00
38
F8
38
38
38
38
38
38
38
38
38
FE
ENDCHAR

STARTCHAR j
ENCODING 106
SWIDTH 352 0
DWIDTH 9 0
BBX 7 24 -1 -5
BITMAP
0C
1E
1E
0E
00
00
00
0E
3E
0E
0E
0E
0E
0E
0E
0E
0E
0E
0E
0E
0E
CC
F8
F0
ENDCHAR

STARTCHAR k
ENCODING 107
SWIDTH 667 0
DWIDTH 17 0
BBX 15 19 1 0
BITMAP
F800
F800
3800
3800
3800
3800
3800
38FC
3870
3860
38C0
3980
3BC0
3DE0
38E0
38F0
3838
387C
FEFE
ENDCHAR

STARTCHAR l
ENCODING 108
SWIDTH 352 0
DWIDTH 9 0
BBX 7 19 1 0
BITMAP
38
F8
38
38
38
38
38
38
38
38
38
38
38
38
38
38
38
38
FE
ENDCHAR

STARTCHAR m
ENCODING 109
SWIDTH 963 0
DWIDTH 24 0
BBX 23 12 1 0
BITMAP
18E0E0
F9F3F0
7BFBF8
3C7C38
383838
383838
383838
383838
383838
383838
383838
FEFEFE
ENDCHAR

STARTCHAR n
ENCODING 110
SWIDTH 685 0
DWIDTH 17 0
BBX 15 12 1 0
BITMAP
08E0
F9F0
7BF8
3C78
3838
3838
3838
3838
3838
3838
3838
FEFE
ENDCHAR

STARTCHAR o
ENCODING 111
SWIDTH 611 0
DWIDTH 15 0
BBX 13 12 1 0
BITMAP
0F80
38E0
7070
7070
F078
F078
F078
F078
7070
7070
38E0
0F80
ENDCHAR

STARTCHAR p
ENCODING 112
SWIDTH 667 0
DWIDTH 17 0
BBX 15 17 1 -5
BITMAP
08F0
FBF8
3C3C
3C1E
381E
381E
381E
381E
3C3C
3E3C
3BF8
39F0
3800
3800
3800
7C00
FE00
ENDCHAR

STARTCHAR q
ENCODING 113
SWIDTH 648 0
DWIDTH 16 0
BBX 15 17 1 -5
BITMAP
0F8C
3CD8
7878
7038
F038
F038
F038
F038
F878
78F8
3FB8
1F38
0038
0038
0038
007C
00FE
ENDCHAR

STARTCHAR r
ENCODING 114
SWIDTH 519 0
DWIDTH 13 0
BBX 11 12 1 0
BITMAP
19C0
FB60
3EE0
3CE0
3840
3800
3800
3800
3800
3800
3800
FF00
ENDCHAR

STARTCHAR s
ENCODING 115
SWIDTH 500 0
DWIDTH 13 0
BBX 10 12 2 0
BITMAP
3E80
6380
C180
E080
FC00
7F80
3FC0
07C0
80C0
C0C0
E180
9F00
ENDCHAR

STARTCHAR t
ENCODING 116
SWIDTH 426 0
DWIDTH 11 0
BBX 9 17 1 0
BITMAP
0800
0800
1800
1800
3800
FF80
3800
3800
3800
3800
3800
3800
3880
3880
3880
1F00
0E00
ENDCHAR

STARTCHAR u
ENCODING 117
SWIDTH 685 0
DWIDTH 17 0
BBX 15 12 1 0
BITMAP
3838
F8F8
3838
3838
3838
3838
3838
3838
3878
3C58
1FBC
0F3E
ENDCHAR

STARTCHAR v
ENCODING 118
SWIDTH 611 0
DWIDTH 15 0
BBX 14 12 1 0
BITMAP
FE7C
7838
3810
3C30
1C20
1E60
0E40
0FC0
0780
0780
0300
0100
ENDCHAR

STARTCHAR w
ENCODING 119
SWIDTH 889 0
DWIDTH 22 0
BBX 20 12 1 0
BITMAP
FDFDF0
70F0C0
7870C0
38F880
3CB880
1CBD80
1F9D00
0F1F00
0F0E00
060E00
060600
060400
ENDCHAR

STARTCHAR x
ENCODING 120
SWIDTH 611 0
DWIDTH 15 0
BBX 14 12 1 0
BITMAP
FEF8
7C70
3C40
1EC0
0F80
0F00
0780
0DC0
19E0
31E0
70F0
FBFC
ENDCHAR

STARTCHAR y
ENCODING 121
SWIDTH 611 0
DWIDTH 15 0
BBX 14 17 1 -5
BITMAP
FE7C
7818
3810
3C30
1C20
1E60
0E40
0FC0
0780
0780
0300
0300
0200
E200
E400
EC00
7000
ENDCHAR

STARTCHAR z
ENCODING 122
SWIDTH 537 0
DWIDTH 13 0
BBX 11 12 1 0
BITMAP
7FE0
61E0
63C0
4780
0780
0F00
1E00
1E20
3C20
7860
7060
FFE0
ENDCHAR

STARTCHAR braceleft
ENCODING 123
SWIDTH 389 0
DWIDTH 10 0
BBX 6 24 2 -5
BITMAP
04
18
30
70
70
70
78
38
38
38
70
C0
C0
70
38
38
78
78
78
70
70
30
18
04
ENDCHAR

STARTCHAR bar
ENCODING 124
SWIDTH 606 0
DWIDTH 15 0
BBX 2 23 7 -4
BITMAP
C0
C0
C0
C0
C0
C0
C0
C0
C0
C0
C0
C0
C0
C0
C0
C0
C0
C0
C0
C0
C0
C0
C0
ENDCHAR

STARTCHAR braceright
ENCODING 125
SWIDTH 389 0
DWIDTH 10 0
BBX 6 24 2 -5
BITMAP
80
60
30
38
38
78
78
78
70
70
38
0C
0C
38
70
70
70
78
38
38
38
30
60
C0
ENDCHAR

STARTCHAR asciitilde
ENCODING 126
SWIDTH 606 0
DWIDTH 15 0
BBX 13 4 1 6
BITMAP
7C08
FF08
87F8
80F0
ENDCHAR

STARTCHAR space
ENCODING 160
SWIDTH 287 0
DWIDTH 9 0
BBX 0 0 0 0
BITMAP
ENDCHAR

STARTCHAR exclamdown
ENCODING 161
SWIDTH 296 0
DWIDTH 7 0
BBX 4 19 2 -5
BITMAP
60
F0
F0
70
00
20
20
60
60
60
60
60
70
F0
F0
F0
F0
F0
60
ENDCHAR

STARTCHAR cent
ENCODING 162
SWIDTH 574 0
DWIDTH 14 0
BBX 12 18 1 -4
BITMAP
0010
0020
0FE0
3860
78F0
70F0
F1E0
F100
F300
F200
F610
7C30
3C60
0F80
1000
1000
2000
6000
ENDCHAR

STARTCHAR sterling
ENCODING 163
SWIDTH 574 0
DWIDTH 14 0
BBX 15 18 -1 -1
BITMAP
01F0
0718
0E1C
0E3C
0E3C
0F18
0F00
0F00
3FF0
0780
0380
0380
3D00
FF82
C7E6
83FC
CEFC
7878
ENDCHAR

STARTCHAR currency
ENCODING 164
SWIDTH 606 0
DWIDTH 15 0
BBX 13 13 1 2
BITMAP
2010
EFB8
7FF0
38E0
7070
6030
6030
6030
7070
38E0
FFF8
6FB0
2010
ENDCHAR

STARTCHAR yen
ENCODING 165
SWIDTH 722 0
DWIDTH 18 0
BBX 17 17 0 0
BITMAP
FF9F80
3E0700
1E0600
1E0400
0F0C00
078800
079800
03F000
7FFF80
7FFF80
01E000
01E000
7FFF80
7FFF80
01E000
01E000
0FFC00
ENDCHAR

STARTCHAR brokenbar
ENCODING 166
SWIDTH 606 0
DWIDTH 15 0
BBX 2 23 7 -4
BITMAP
C0
C0
C0
C0
C0
C0
C0
C0
00
00
00
00
00
00
00
C0
C0
C0
C0
C0
C0
C0
C0
ENDCHAR

STARTCHAR section
ENCODING 167
SWIDTH 500 0
DWIDTH 13 0
BBX 10 24 1 -5
BITMAP
1F00
3180
73C0
73C0
7180
7800
3C00
3E00
6F00
C780
C380
E1C0
F0C0
F8C0
7C80
3F80
1E00
0F00
0780
6380
F380
F380
6300
3E00
ENDCHAR

STARTCHAR dieresis
ENCODING 168
SWIDTH 333 0
DWIDTH 8 0
BBX 8 3 0 14
BITMAP
E7
E7
E7
ENDCHAR

STARTCHAR copyright
ENCODING 169
SWIDTH 747 0
DWIDTH 19 0
BBX 17 17 1 0
BITMAP
07E000
1C1800
300600
63EA00
461900
4C0980
8C0880
9C0080
9C0080
9C0080
9C0080
CE1180
463100
61C300
300600
1C1C00
07F000
ENDCHAR

STARTCHAR ordfeminine
ENCODING 170
SWIDTH 367 0
DWIDTH 9 0
BBX 9 8 0 11
BITMAP
3C00
6600
6600
1E00
7600
E600
EE00
7780
ENDCHAR

STARTCHAR guillemotleft
ENCODING 171
SWIDTH 500 0
DWIDTH 13 0
BBX 12 10 0 2
BITMAP
0C30
0C60
18E0
38E0
F3C0
71C0
39C0
38E0
1C60
0C30
ENDCHAR

STARTCHAR logicalnot
ENCODING 172
SWIDTH 606 0
DWIDTH 15 0
BBX 14 8 0 4
BITMAP
FFFC
FFFC
000C
000C
000C
000C
000C
000C
ENDCHAR

STARTCHAR hyphen
ENCODING 173
SWIDTH 333 0
DWIDTH 8 0
BBX 8 2 0 5
BITMAP
FF
FF
ENDCHAR

STARTCHAR registered
ENCODING 174
SWIDTH 747 0
DWIDTH 19 0
BBX 17 17 1 0
BITMAP
07F000
1C1C00
300600
6FE300
463100
C63980
863880
867080
87E080
86E080
867080
463180
4FB900
200200
300600
0C1800
03F000
ENDCHAR

STARTCHAR macron
ENCODING 175
SWIDTH 333 0
DWIDTH 8 0
BBX 9 2 0 15
BITMAP
FF80
FF80
ENDCHAR

STARTCHAR degree
ENCODING 176
SWIDTH 400 0
DWIDTH 10 0
BBX 9 9 0 9
BITMAP
1C00
7F00
6380
C180
C180
C180
6300
7F00
1C00
ENDCHAR

STARTCHAR plusminus
ENCODING 177
SWIDTH 606 0
DWIDTH 15 0
BBX 14 18 1 0
BITMAP
0300
0300
0300
0300
0300
0300
FFFC
FFFC
0300
0300
0300
0300
0300
0300
0000
0000
FFFC
FFFC
ENDCHAR

STARTCHAR twosuperior
ENCODING 178
SWIDTH 344 0
DWIDTH 9 0
BBX 7 9 0 9
BITMAP
3C
4E
66
66
0C
18
22
7E
FE
ENDCHAR

STARTCHAR threesuperior
ENCODING 179
SWIDTH 344 0
DWIDTH 9 0
BBX 6 9 1 9
BITMAP
78
CC
CC
04
78
0C
CC
8C
78
ENDCHAR

STARTCHAR acute
ENCODING 180
SWIDTH 333 0
DWIDTH 8 0
BBX 5 4 2 14
BITMAP
38
78
70
C0
ENDCHAR

STARTCHAR mu
ENCODING 181
SWIDTH 685 0
DWIDTH 17 0
BBX 14 17 2 -5
BITMAP
70E0
70E0
70E0
70E0
70E0
70E0
70E0
70E0
70E4
79E4
7EF8
5C70
4000
E000
E000
E000
E000
ENDCHAR

STARTCHAR paragraph
ENCODING 182
SWIDTH 747 0
DWIDTH 19 0
BBX 15 22 2 -3
BITMAP
1FFE
3F10
7F10
FF10
FF10
FF10
FF10
FF10
7F10
7F10
1F10
0110
0110
0110
0110
0110
0110
0110
0110
0110
0110
0110
ENDCHAR

STARTCHAR periodcentered
ENCODING 183
SWIDTH 278 0
DWIDTH 7 0
BBX 4 4 1 8
BITMAP
60
F0
F0
60
ENDCHAR

STARTCHAR cedilla
ENCODING 184
SWIDTH 333 0
DWIDTH 8 0
BBX 6 5 0 -5
BITMAP
30
7C
0C
1C
F8
ENDCHAR

STARTCHAR onesuperior
ENCODING 185
SWIDTH 344 0
DWIDTH 9 0
BBX 6 9 1 9
BITMAP
30
F0
30
30
30
30
30
30
FC
ENDCHAR

STARTCHAR ordmasculine
ENCODING 186
SWIDTH 367 0
DWIDTH 9 0
BBX 9 8 0 11
BITMAP
3E00
6300
E380
E380
E380
E380
6700
1E00
ENDCHAR

STARTCHAR guillemotright
ENCODING 187
SWIDTH 500 0
DWIDTH 13 0
BBX 12 10 0 2
BITMAP
C300
6180
71C0
38E0
3CE0
3CF0
38E0
31C0
6180
C300
ENDCHAR

STARTCHAR onequarter
ENCODING 188
SWIDTH 861 0
DWIDTH 22 0
BBX 18 18 2 0
BITMAP
300000
F00300
300200
300400
300800
300800
301000
302000
FC6000
004100
008300
010700
010B00
021300
042300
0C3FC0
080300
100780
ENDCHAR

STARTCHAR onehalf
ENCODING 189
SWIDTH 861 0
DWIDTH 22 0
BBX 18 18 2 0
BITMAP
300000
F00100
300200
300400
300800
300800
301000
302000
FC6000
004780
0089C0
011CC0
010DC0
020180
040300
080440
080FC0
101FC0
ENDCHAR

STARTCHAR threequarters
ENCODING 190
SWIDTH 861 0
DWIDTH 22 0
BBX 18 18 2 0
BITMAP
780100
CC0200
CC0200
040400
780800
0C0800
CC1000
8C2000
786000
004300
008300
010500
010B00
021300
042300
0C3FC0
080300
100780
ENDCHAR

STARTCHAR questiondown
ENCODING 191
SWIDTH 500 0
DWIDTH 13 0
BBX 10 19 2 -5
BITMAP
1E00
1E00
1E00
0E00
0000
0000
0400
0400
0C00
1800
3800
7000
F000
F380
E3C0
E3C0
F0C0
7980
3E00
ENDCHAR

STARTCHAR Agrave
ENCODING 192
SWIDTH 759 0
DWIDTH 19 0
BBX 19 25 0 0
BITMAP
018000
01C000
01E000
006000
001000
000000
004000
00E000
00E000
00F000
01F000
017000
037800
027800
063C00
043C00
041C00
081E00
0FFE00
180F00
100F00
300700
300780
780780
FE1FE0
ENDCHAR

STARTCHAR Aacute
ENCODING 193
SWIDTH 759 0
DWIDTH 19 0
BBX 19 25 0 0
BITMAP
003000
007000
00F000
00C000
010000
000000
004000
00E000
00E000
00F000
01F000
017000
037800
027800
063C00
043C00
041C00
081E00
0FFE00
180F00
100F00
300700
300780
780780
FE1FE0
ENDCHAR

STARTCHAR Acircumflex
ENCODING 194
SWIDTH 759 0
DWIDTH 19 0
BBX 19 25 0 0
BITMAP
01E000
01F000
03B000
031800
040800
000000
004000
00E000
00E000
00F000
01F000
017000
037800
027800
063C00
043C00
041C00
081E00
0FFE00
180F00
100F00
300700
300780
780780
FE1FE0
ENDCHAR

STARTCHAR Atilde
ENCODING 195
SWIDTH 759 0
DWIDTH 19 0
BBX 19 24 0 0
BITMAP
03C400
03F800
047000
000000
000000
004000
00E000
00E000
00F000
01F000
017000
037800
027800
063C00
043C00
041C00
081E00
0FFE00
180F00
100F00
300700
300780
780780
FE1FE0
ENDCHAR

STARTCHAR Adieresis
ENCODING 196
SWIDTH 759 0
DWIDTH 19 0
BBX 20 24 -1 0
BITMAP
039C00
039C00
039C00
000000
000000
006000
006000
007000
00F000
00F000
01B800
017800
013C00
023C00
021C00
061E00
040E00
07FF00
080F00
080700
180780
180780
3807C0
FE1FF0
ENDCHAR

STARTCHAR Aring
ENCODING 197
SWIDTH 759 0
DWIDTH 19 0
BBX 19 25 0 0
BITMAP
00E000
019000
011000
01B000
00E000
000000
004000
00E000
00E000
00F000
01F000
017000
037800
027800
023C00
043C00
041C00
081E00
0FFE00
180F00
100F00
100780
300780
7807C0
FE1FE0
ENDCHAR

STARTCHAR AE
ENCODING 198
SWIDTH 981 0
DWIDTH 25 0
BBX 25 19 -1 0
BITMAP
01FFFF00
00370700
002F0300
006F0300
004F0100
00CF1100
008F1000
018F1000
010F3000
030FF000
03FF3000
060F1000
040F1080
0C0F1080
080F0180
180F0180
100F0380
780F0780
FC7FFF80
ENDCHAR

STARTCHAR Ccedilla
ENCODING 199
SWIDTH 778 0
DWIDTH 19 0
BBX 15 24 2 -5
BITMAP
07E2
0E3E
3C0E
3806
7806
7006
F002
F000
F000
F000
F000
F000
F002
F802
7802
3804
3C0C
1E18
07E0
0180
07C0
01C0
01C0
0780
ENDCHAR

STARTCHAR Egrave
ENCODING 200
SWIDTH 759 0
DWIDTH 19 0
BBX 17 26 1 0
BITMAP
030000
038000
03C000
00E000
002000
000000
000000
FFFF00
1E0700
1E0300
1E0100
1E0100
1E1100
1E1100
1E3000
1E7000
1FF000
1E3000
1E3000
1E1080
1E1080
1E0180
1E0180
1E0380
1E0780
FFFF80
ENDCHAR

STARTCHAR Eacute
ENCODING 201
SWIDTH 759 0
DWIDTH 19 0
BBX 17 26 1 0
BITMAP
006000
00F000
01E000
018000
020000
000000
000000
FFFF00
1E0700
1E0300
1E0100
1E0100
1E1100
1E1100
1E3000
1E7000
1FF000
1E3000
1E3000
1E1080
1E1080
1E0180
1E0180
1E0380
1E0780
FFFF80
ENDCHAR

STARTCHAR Ecircumflex
ENCODING 202
SWIDTH 759 0
DWIDTH 19 0
BBX 17 26 1 0
BITMAP
01E000
03E000
037000
061000
040800
000000
000000
FFFF00
1E0700
1E0300
1E0100
1E0100
1E1100
1E1100
1E3000
1E7000
1FF000
1E3000
1E3000
1E1080
1E1080
1E0180
1E0180
1E0380
1E0780
FFFF80
ENDCHAR

STARTCHAR Edieresis
ENCODING 203
SWIDTH 759 0
DWIDTH 19 0
BBX 17 25 1 0
BITMAP
0E3800
0E3800
0E3800
000000
000000
000000
FFFF00
1E0700
1E0300
1E0100
1E0100
1E1180
1E1180
1E3000
1E7000
1FF000
1E3000
1E1000
1E1080
1E1080
1E0080
1E0180
1E0380
1E0780
FFFF80
ENDCHAR

STARTCHAR Igrave
ENCODING 204
SWIDTH 444 0
DWIDTH 11 0
BBX 10 26 1 0
BITMAP
1000
3800
1C00
0E00
0200
0000
0000
FFC0
1E00
1E00
1E00
1E00
1E00
1E00
1E00
1E00
1E00
1E00
1E00
1E00
1E00
1E00
1E00
1E00
1E00
FFC0
ENDCHAR

STARTCHAR Iacute
ENCODING 205
SWIDTH 444 0
DWIDTH 11 0
BBX 10 26 1 0
BITMAP
0200
0700
0E00
1C00
1000
0000
0000
FFC0
1E00
1E00
1E00
1E00
1E00
1E00
1E00
1E00
1E00
1E00
1E00
1E00
1E00
1E00
1E00
1E00
1E00
FFC0
ENDCHAR

STARTCHAR Icircumflex
ENCODING 206
SWIDTH 444 0
DWIDTH 11 0
BBX 10 26 1 0
BITMAP
1E00
1E00
3B00
2100
4080
0000
0000
FFC0
1E00
1E00
1E00
1E00
1E00
1E00
1E00
1E00
1E00
1E00
1E00
1E00
1E00
1E00
1E00
1E00
1E00
FFC0
ENDCHAR

STARTCHAR Idieresis
ENCODING 207
SWIDTH 444 0
DWIDTH 11 0
BBX 10 25 1 0
BITMAP
7380
7380
7380
0000
0000
0000
FFC0
1E00
1E00
1E00
1E00
1E00
1E00
1E00
1E00
1E00
1E00
1E00
1E00
1E00
1E00
1E00
1E00
1E00
FFC0
ENDCHAR

STARTCHAR Gbreve
ENCODING 208
SWIDTH 833 0
DWIDTH 21 0
BBX 19 25 1 0
BITMAP
020800
031800
03F000
01E000
000000
000000
03F300
0E1F00
1C0700
380300
780300
780100
F00100
F00000
F00000
F00000
F03FE0
F00780
F00780
780780
780780
380780
3C0D80
0E1980
03F080
ENDCHAR

STARTCHAR Ntilde
ENCODING 209
SWIDTH 833 0
DWIDTH 21 0
BBX 20 25 1 0
BITMAP
01C400
03FC00
047800
000000
000000
000000
FC07F0
3E03C0
1F01C0
1F0080
178080
17C080
13E080
11F080
10F080
10F880
107C80
103E80
101E80
100F80
100F80
100780
380380
7C0180
FE0180
ENDCHAR

STARTCHAR Ograve
ENCODING 210
SWIDTH 833 0
DWIDTH 21 0
BBX 18 25 1 0
BITMAP
038000
03C000
01E000
002000
000000
000000
07F000
0E1C00
3C0E00
380700
780780
780380
F003C0
F003C0
F003C0
F003C0
F003C0
F003C0
F003C0
780780
780780
380700
1C0E00
0E1C00
03F000
ENDCHAR

STARTCHAR Oacute
ENCODING 211
SWIDTH 833 0
DWIDTH 21 0
BBX 18 25 1 0
BITMAP
007000
00F000
01E000
010000
000000
000000
07F000
0E1C00
3C0E00
380700
780780
780380
F003C0
F003C0
F003C0
F003C0
F003C0
F003C0
F003C0
780780
780780
380700
1C0E00
0E1C00
03F000
ENDCHAR

STARTCHAR Ocircumflex
ENCODING 212
SWIDTH 833 0
DWIDTH 21 0
BBX 18 25 1 0
BITMAP
01E000
03F000
033000
040800
000000
000000
07F000
0E1C00
3C0E00
380700
780780
780380
F003C0
F003C0
F003C0
F003C0
F003C0
F003C0
F003C0
780780
780780
380700
1C0E00
0E1C00
03F000
ENDCHAR

STARTCHAR Otilde
ENCODING 213
SWIDTH 833 0
DWIDTH 21 0
BBX 18 24 1 0
BITMAP
03C800
07F800
047000
000000
000000
07F000
0E1C00
3C0E00
380700
780780
780380
F003C0
F003C0
F003C0
F003C0
F003C0
F003C0
F003C0
780780
780780
380700
1C0E00
0E1C00
03F000
ENDCHAR

STARTCHAR Odieresis
ENCODING 214
SWIDTH 833 0
DWIDTH 21 0
BBX 18 25 1 0
BITMAP
073800
073800
073800
000000
000000
000000
07F000
0E1C00
3C0E00
380700
780780
780780
F803C0
F003C0
F003C0
F003C0
F003C0
F003C0
F807C0
780780
780780
380700
1C0E00
0E1C00
03F000
ENDCHAR

STARTCHAR multiply
ENCODING 215
SWIDTH 650 0
DWIDTH 16 0
BBX 13 13 2 2
BITMAP
4010
E038
F070
78E0
3DC0
1F80
0F00
0F80
1DC0
39E0
70F0
E078
4030
ENDCHAR

STARTCHAR Oslash
ENCODING 216
SWIDTH 833 0
DWIDTH 21 0
BBX 18 19 1 0
BITMAP
07F0C0
0E1D00
3C0F00
380700
780F80
780BC0
F013C0
F023C0
F043C0
F0C3C0
F183C0
F303C0
F603C0
7C0780
780780
380700
3C0E00
6E1C00
C3F000
ENDCHAR

STARTCHAR Ugrave
ENCODING 217
SWIDTH 833 0
DWIDTH 21 0
BBX 19 26 1 0
BITMAP
018000
01C000
01E000
006000
001000
000000
000000
FF8FE0
3C03C0
3C0180
3C0180
3C0180
3C0180
3C0180
3C0180
3C0180
3C0180
3C0180
3C0180
3C0180
3C0180
3C0180
1E0300
1F0600
0FFC00
01F800
ENDCHAR

STARTCHAR Uacute
ENCODING 218
SWIDTH 833 0
DWIDTH 21 0
BBX 19 26 1 0
BITMAP
003000
007000
00F000
00C000
010000
000000
000000
FF8FE0
3C03C0
3C0180
3C0180
3C0180
3C0180
3C0180
3C0180
3C0180
3C0180
3C0180
3C0180
3C0180
3C0180
3C0180
1E0300
1F0600
0FFC00
01F800
ENDCHAR

STARTCHAR Ucircumflex
ENCODING 219
SWIDTH 833 0
DWIDTH 21 0
BBX 19 26 1 0
BITMAP
01F000
01F000
03B800
031800
040400
000000
000000
FF8FE0
3C03C0
3C0180
3C0180
3C0180
3C0180
3C0180
3C0180
3C0180
3C0180
3C0180
3C0180
3C0180
3C0180
3C0180
1E0300
1F0600
0FFC00
01F800
ENDCHAR

STARTCHAR Udieresis
ENCODING 220
SWIDTH 833 0
DWIDTH 21 0
BBX 18 25 2 0
BITMAP
073800
073800
073800
000000
000000
000000
FF0FC0
3C0780
3C0300
3C0300
3C0300
3C0300
3C0300
3C0300
3C0300
3C0300
3C0300
3C0300
3C0300
3C0300
3C0300
1E0600
1F0E00
0FFC00
03F000
ENDCHAR

STARTCHAR Idotaccent
ENCODING 221
SWIDTH 444 0
DWIDTH 11 0
BBX 10 25 1 0
BITMAP
1C00
1C00
1C00
0000
0000
0000
FFC0
1E00
1E00
1E00
1E00
1E00
1E00
1E00
1E00
1E00
1E00
1E00
1E00
1E00
1E00
1E00
1E00
1E00
FFC0
ENDCHAR

STARTCHAR Scedilla
ENCODING 222
SWIDTH 667 0
DWIDTH 17 0
BBX 14 24 1 -5
BITMAP
1F88
30F8
6038
C018
C018
E008
F000
FF00
7FE0
3FF0
0FF8
00FC
803C
801C
C01C
C018
E018
D870
8FE0
0780
07C0
00C0
01C0
0F80
ENDCHAR

STARTCHAR germandbls
ENCODING 223
SWIDTH 611 0
DWIDTH 15 0
BBX 14 19 1 0
BITMAP
07E0
1C70
1838
3838
3838
3838
3870
39C0
38E0
3838
3838
381C
381C
381C
381C
3B9C
3BB8
3938
FDE0
ENDCHAR

STARTCHAR agrave
ENCODING 224
SWIDTH 611 0
DWIDTH 15 0
BBX 14 18 1 0
BITMAP
0600
0F00
0700
0180
0000
0000
1F80
71C0
70E0
70E0
30E0
0FE0
38E0
70E0
F0E0
F1E0
7F64
3C78
ENDCHAR

STARTCHAR aacute
ENCODING 225
SWIDTH 611 0
DWIDTH 15 0
BBX 14 18 1 0
BITMAP
0180
03C0
0780
0E00
0000
0000
1F80
71C0
70E0
70E0
30E0
0FE0
38E0
70E0
F0E0
F1E0
7F64
3C78
ENDCHAR

STARTCHAR acircumflex
ENCODING 226
SWIDTH 611 0
DWIDTH 15 0
BBX 14 18 1 0
BITMAP
0780
0F80
0CC0
1860
0000
0000
1F80
71C0
70E0
70E0
30E0
0FE0
38E0
70E0
F0E0
F1E0
7F64
3C78
ENDCHAR

STARTCHAR atilde
ENCODING 227
SWIDTH 611 0
DWIDTH 15 0
BBX 14 17 1 0
BITMAP
0E20
1FE0
23C0
0000
0000
1F80
71C0
70E0
70E0
30E0
0FE0
38E0
70E0
F0E0
F1E0
7F64
3C78
ENDCHAR

STARTCHAR adieresis
ENCODING 228
SWIDTH 611 0
DWIDTH 15 0
BBX 14 17 1 0
BITMAP
1CE0
1CE0
1CE0
0000
0000
1F80
71C0
70E0
70E0
30E0
0FE0
38E0
70E0
F0E0
F1E0
7F64
3C78
ENDCHAR

STARTCHAR aring
ENCODING 229
SWIDTH 611 0
DWIDTH 15 0
BBX 14 19 1 0
BITMAP
0700
0C80
0880
0D80
0700
0000
0000
1F80
71C0
70E0
70E0
30E0
0FE0
38E0
70E0
F0E0
F1E0
7F64
3C78
ENDCHAR

STARTCHAR ae
ENCODING 230
SWIDTH 870 0
DWIDTH 22 0
BBX 19 12 1 0
BITMAP
1F9F80
71F9C0
70F0E0
70F0E0
00F0E0
0FFFE0
38F000
70F000
F0F020
F1F060
7F38C0
3C1F80
ENDCHAR

STARTCHAR ccedilla
ENCODING 231
SWIDTH 556 0
DWIDTH 14 0
BBX 12 17 1 -5
BITMAP
0FC0
3860
78F0
70F0
F060
F000
F000
F000
F010
7830
3C60
1F80
0600
1F80
0780
0780
1F00
ENDCHAR

STARTCHAR egrave
ENCODING 232
SWIDTH 574 0
DWIDTH 14 0
BBX 12 18 1 0
BITMAP
0C00
0E00
0700
0180
0000
0000
0F80
38C0
7860
7070
F070
FFF0
F000
F000
7010
7830
3C60
0F80
ENDCHAR

STARTCHAR eacute
ENCODING 233
SWIDTH 574 0
DWIDTH 14 0
BBX 12 18 1 0
BITMAP
0380
0380
0700
0C00
0000
0000
0F80
38C0
7860
7070
F070
FFF0
F000
F000
7010
7830
3C60
0F80
ENDCHAR

STARTCHAR ecircumflex
ENCODING 234
SWIDTH 574 0
DWIDTH 14 0
BBX 12 18 1 0
BITMAP
0F00
0F80
1980
3040
0000
0000
0F80
38C0
7860
7070
F070
FFF0
F000
F000
7010
7830
3C60
0F80
ENDCHAR

STARTCHAR edieresis
ENCODING 235
SWIDTH 574 0
DWIDTH 14 0
BBX 12 17 1 0
BITMAP
39C0
39C0
39C0
0000
0000
1F80
39C0
70E0
70E0
F0E0
FFF0
F000
F000
7030
7820
3CC0
0F80
ENDCHAR

STARTCHAR igrave
ENCODING 236
SWIDTH 370 0
DWIDTH 9 0
BBX 7 18 1 0
BITMAP
70
70
38
0C
00
00
38
F8
38
38
38
38
38
38
38
38
38
FE
ENDCHAR

STARTCHAR iacute
ENCODING 237
SWIDTH 370 0
DWIDTH 9 0
BBX 7 18 1 0
BITMAP
0C
1C
38
60
00
00
38
F8
38
38
38
38
38
38
38
38
38
FE
ENDCHAR

STARTCHAR icircumflex
ENCODING 238
SWIDTH 370 0
DWIDTH 9 0
BBX 9 19 0 0
BITMAP
1C00
3E00
3600
6300
C180
0000
0000
1C00
7C00
1C00
1C00
1C00
1C00
1C00
1C00
1C00
1C00
1C00
7F00
ENDCHAR

STARTCHAR idieresis
ENCODING 239
SWIDTH 370 0
DWIDTH 9 0
BBX 9 17 0 0
BITMAP
E380
E380
E380
0000
0000
1C00
7C00
1C00
1C00
1C00
1C00
1C00
1C00
1C00
1C00
1C00
7F00
ENDCHAR

STARTCHAR gbreve
ENCODING 240
SWIDTH 611 0
DWIDTH 15 0
BBX 14 23 1 -5
BITMAP
1020
1860
0FC0
0780
0000
003C
1FBC
79EC
70E0
F0F0
F0F0
F0F0
79E0
3F80
4000
C000
FFE0
7FF8
3FF8
E018
C018
E030
3FC0
ENDCHAR

STARTCHAR ntilde
ENCODING 241
SWIDTH 685 0
DWIDTH 17 0
BBX 15 17 1 0
BITMAP
0F10
0FE0
11C0
0000
0000
08E0
F9F0
7BF8
3C78
3838
3838
3838
3838
3838
3838
3838
FEFE
ENDCHAR

STARTCHAR ograve
ENCODING 242
SWIDTH 611 0
DWIDTH 15 0
BBX 13 18 1 0
BITMAP
0E00
0E00
0700
0180
0000
0000
0F80
38E0
7070
7070
F078
F078
F078
F078
7070
7070
38E0
0F80
ENDCHAR

STARTCHAR oacute
ENCODING 243
SWIDTH 611 0
DWIDTH 15 0
BBX 13 18 1 0
BITMAP
0180
0380
0700
0C00
0000
0000
0F80
38E0
7070
7070
F078
F078
F078
F078
7070
7070
38E0
0F80
ENDCHAR

STARTCHAR ocircumflex
ENCODING 244
SWIDTH 611 0
DWIDTH 15 0
BBX 13 18 1 0
BITMAP
0F80
0F80
0CC0
1040
0000
0000
0F80
38E0
7070
7070
F078
F078
F078
F078
7070
7070
38E0
0F80
ENDCHAR

STARTCHAR otilde
ENCODING 245
SWIDTH 611 0
DWIDTH 15 0
BBX 13 17 1 0
BITMAP
0E20
1FC0
2380
0000
0000
0F80
38E0
7070
7070
F078
F078
F078
F078
7070
7070
38E0
0F80
ENDCHAR

STARTCHAR odieresis
ENCODING 246
SWIDTH 611 0
DWIDTH 15 0
BBX 13 17 1 0
BITMAP
1CE0
1CE0
1CE0
0000
0000
0F80
38E0
7070
7070
F078
F078
F078
F078
7070
7070
38E0
0F80
ENDCHAR

STARTCHAR divide
ENCODING 247
SWIDTH 606 0
DWIDTH 15 0
BBX 13 13 1 2
BITMAP
0700
0700
0300
0000
0000
0000
FFF8
FFF8
0000
0000
0200
0700
0200
ENDCHAR

STARTCHAR oslash
ENCODING 248
SWIDTH 611 0
DWIDTH 15 0
BBX 13 12 1 0
BITMAP
0F98
38F0
7070
70F0
F1B8
F378
F678
F478
7870
7070
38E0
CF80
ENDCHAR

STARTCHAR ugrave
ENCODING 249
SWIDTH 685 0
DWIDTH 17 0
BBX 15 18 1 0
BITMAP
0700
0700
0380
00C0
0000
0000
3838
F8F8
3838
3838
3838
3838
3838
3838
3878
3C58
1FBC
0F3E
ENDCHAR

STARTCHAR uacute
ENCODING 250
SWIDTH 685 0
DWIDTH 17 0
BBX 15 18 1 0
BITMAP
00C0
01C0
03C0
0700
0000
0000
3838
F8F8
3838
3838
3838
3838
3838
3838
3878
3C58
1FBC
0F3E
ENDCHAR

STARTCHAR ucircumflex
ENCODING 251
SWIDTH 685 0
DWIDTH 17 0
BBX 15 19 1 0
BITMAP
03C0
07C0
06C0
0C60
0830
0000
0000
3838
F8F8
3838
3838
3838
3838
3838
3838
3878
3C58
1FBC
0F3E
ENDCHAR

STARTCHAR udieresis
ENCODING 252
SWIDTH 685 0
DWIDTH 17 0
BBX 15 17 1 0
BITMAP
0E70
0E70
0E70
0000
0000
3838
F8F8
3838
3838
3838
3838
3838
3838
3878
3C58
1FBC
0F3E
ENDCHAR

STARTCHAR dotlessi
ENCODING 253
SWIDTH 370 0
DWIDTH 9 0
BBX 7 12 1 0
BITMAP
38
F8
38
38
38
38
38
38
38
38
38
FE
ENDCHAR

STARTCHAR scedilla
ENCODING 254
SWIDTH 500 0
DWIDTH 13 0
BBX 10 17 1 -5
BITMAP
3E80
6380
C180
C080
FC00
7F80
7FC0
0FC0
80C0
C0C0
E180
DF00
1E00
1F00
0300
0700
3E00
ENDCHAR

STARTCHAR ydieresis
ENCODING 255
SWIDTH 611 0
DWIDTH 15 0
BBX 14 23 1 -5
BITMAP
1CE0
1CE0
1CE0
0000
0000
0000
FE7C
7818
3810
3C30
1C20
1E60
0E40
0FC0
0780
0780
0300
0300
0200
E200
E400
EC00
7000
ENDCHAR
ENDFONT
